HIERARCHY
ROOT Hips
{
	OFFSET 0.000000 0.000000 0.000000 
	CHANNELS 6 Xposition Yposition Zposition Zrotation Yrotation Xrotation
	JOINT LeftUpLeg
	{
		OFFSET 1.363060 -1.794630 0.839290 
		CHANNELS 3 Zrotation Yrotation Xrotation
		JOINT LeftLeg
		{
			OFFSET 2.448110 -6.726130 0.000000 
			CHANNELS 3 Zrotation Yrotation Xrotation
			JOINT LeftFoot
			{
				OFFSET 2.562200 -7.039590 0.000000 
				CHANNELS 3 Zrotation Yrotation Xrotation
				JOINT LeftToeBase
				{
					OFFSET 0.157640 -0.433110 2.322550 
					CHANNELS 3 Zrotation Yrotation Xrotation
					End Site
					{
						OFFSET 0.000000 0.000000 0.000000 
					}
				}
			}
		}
	}
	JOINT RightUpLeg
	{
		OFFSET -1.305520 -1.794630 0.839290 
		CHANNELS 3 Zrotation Yrotation Xrotation
		JOINT RightLeg
		{
			OFFSET -2.542530 -6.985550 0.000000 
			CHANNELS 3 Zrotation Yrotation Xrotation
			JOINT RightFoot
			{
				OFFSET -2.568260 -7.056230 0.000000 
				CHANNELS 3 Zrotation Yrotation Xrotation
				JOINT RightToeBase
				{
					OFFSET -0.164730 -0.452590 2.363150 
					CHANNELS 3 Zrotation Yrotation Xrotation
					End Site
					{
						OFFSET 0.000000 0.000000 0.000000 
					}
				}
			}
		}
	}
	JOINT Spine
	{
		OFFSET 0.028270 2.035590 -0.193380 
		CHANNELS 3 Zrotation Yrotation Xrotation
		JOINT Spine1
		{
			OFFSET 0.056720 2.048850 -0.042750 
			CHANNELS 3 Zrotation Yrotation Xrotation
			JOINT Neck1
			{
				OFFSET -0.054170 1.746240 0.172020 
				CHANNELS 3 Zrotation Yrotation Xrotation
				JOINT Head
				{
					OFFSET 0.104070 1.761360 -0.123970 
					CHANNELS 3 Zrotation Yrotation Xrotation
					End Site
					{
						OFFSET 0.000000 0.000000 0.000000 
					}
				}
			}
			JOINT LeftArm
			{
				OFFSET 3.362410 1.200890 -0.311210 
				CHANNELS 3 Zrotation Yrotation Xrotation
				JOINT LeftForeArm
				{
					OFFSET 4.983000 -0.000000 -0.000000 
					CHANNELS 3 Zrotation Yrotation Xrotation
					JOINT LeftHand
					{
						OFFSET 3.483560 -0.000000 -0.000000 
						CHANNELS 3 Zrotation Yrotation Xrotation
						JOINT LeftHandIndex1
						{
							OFFSET 0.715260 -0.000000 -0.000000 
							CHANNELS 3 Zrotation Yrotation Xrotation
							End Site
							{
								OFFSET 0.000000 0.000000 0.000000 
							}
						}
					}
				}
			}
			JOINT RightArm
			{
				OFFSET -3.136600 1.374050 -0.404650 
				CHANNELS 3 Zrotation Yrotation Xrotation
				JOINT RightForeArm
				{
					OFFSET -5.241900 -0.000000 -0.000000 
					CHANNELS 3 Zrotation Yrotation Xrotation
					JOINT RightHand
					{
						OFFSET -3.444170 -0.000000 -0.000000 
						CHANNELS 3 Zrotation Yrotation Xrotation
						JOINT RightHandIndex1
						{
							OFFSET -0.622530 -0.000000 -0.000000 
							CHANNELS 3 Zrotation Yrotation Xrotation
							End Site
							{
								OFFSET 0.000000 0.000000 0.000000 
							}
						}
					}
				}
			}
		}
	}
}
MOTION
Frames: 15
Frame Time: 0.041667
-8.981058 16.755732 50.298807 -179.026247 17.819561 -152.803643 -2.367973 -0.519376 -30.588586 7.135276 17.336806 52.422431 12.040195 -26.786170 16.644498 0.149700 -2.493500 -6.871600 6.458355 -6.686011 -27.216891 -11.082164 -17.152869 53.902322 8.930837 -24.114607 15.370759 -4.063300 12.244200 -36.601300 0.279035 3.148762 -5.046752 -0.815067 1.650091 -9.730074 1.802847 4.215614 1.045896 -1.724000 1.723900 4.087800 -79.961393 0.372217 36.101354 38.396082 -43.356775 -22.929470 -1.058656 -0.297377 0.042274 -7.125000 0.000000 0.000000 73.753498 -11.844113 19.185224 -36.585847 42.345196 -23.843014 2.705191 1.866190 0.333377 7.125000 0.000000 0.000000 
-8.955747 16.715234 50.066169 -179.446726 17.031553 -153.134823 -2.618316 -1.146469 -29.406056 6.824616 16.998443 51.549546 12.235562 -26.462010 16.166297 0.124800 -2.277100 -6.272200 6.550720 -6.825310 -29.321698 -12.650788 -18.043359 59.088806 8.186761 -22.350536 14.485181 -4.213600 12.439400 -37.304600 0.377138 2.479447 -5.003474 -0.132133 1.315977 -9.821637 1.888402 4.455045 0.822892 -1.738600 1.841200 3.923200 -79.832935 -1.503476 36.473935 40.712228 -44.328095 -24.836344 -1.049814 -0.266947 -0.064271 -7.125000 0.000000 0.000000 73.022550 -12.230524 17.814215 -35.630578 41.817137 -23.162637 2.730420 2.046869 0.834222 7.125000 0.000000 0.000000 
-8.931561 16.663825 49.832407 -179.698372 16.085812 -153.266481 -2.721002 -1.701386 -28.320177 6.519613 16.662347 50.595563 12.401811 -25.777056 15.676862 0.139100 -2.403800 -6.623100 6.746482 -7.005007 -31.553501 -13.948780 -18.738030 63.925989 7.174381 -19.770233 13.034279 -3.869800 11.985100 -35.679100 0.488838 1.746309 -4.967640 0.444075 0.940266 -9.856245 1.971941 4.681763 0.634350 -1.765300 1.953900 3.732700 -79.601521 -3.413544 36.746872 43.278658 -45.329636 -27.035101 -1.031255 -0.246588 -0.067103 -7.125000 0.000000 0.000000 72.331858 -12.737900 17.285709 -34.404802 41.176091 -22.109719 3.028902 1.830234 -2.001162 7.125000 0.000000 0.000000 
-8.908612 16.631876 49.575809 -179.734825 14.954570 -153.303466 -2.585722 -2.361194 -27.076468 6.124192 16.274183 49.417921 12.563440 -25.101404 15.485996 0.116000 -2.195900 -6.047300 7.364287 -7.787301 -34.240294 -15.215521 -19.299800 68.427428 6.500272 -17.970282 11.383813 -3.386700 11.296200 -33.285400 0.598317 1.075476 -4.936397 0.807375 0.571136 -9.840426 2.085476 4.795328 0.494210 -1.759700 2.014400 3.635800 -79.277417 -5.430941 37.082937 46.215070 -46.369989 -29.620096 -1.006242 -0.261367 0.113516 -7.125000 0.000000 0.000000 71.715003 -13.328209 16.553297 -33.939319 40.948663 -21.806546 3.208602 1.949362 -2.431486 7.125000 0.000000 0.000000 
-8.889600 16.633564 49.274775 -179.721842 13.822954 -152.993560 -2.341060 -3.136882 -25.864887 5.642426 15.813102 47.951653 12.738741 -24.314471 15.352248 0.107100 -2.110100 -5.809900 8.278654 -8.694252 -37.409578 -16.234011 -19.679819 71.869560 6.467890 -17.556250 9.206157 -3.155600 10.942800 -32.087300 0.727213 0.412292 -4.974751 1.127505 0.203955 -10.075918 2.169635 4.887141 0.476745 -1.719100 2.061000 3.622600 -79.241652 -6.857366 37.289334 49.777058 -47.577309 -32.858895 -0.990566 -0.319483 0.584304 -7.125000 0.000000 0.000000 70.704334 -14.628868 17.332138 -34.724607 41.547172 -22.632805 3.154799 1.891252 -1.828483 7.125000 0.000000 0.000000 
-8.871714 16.609940 48.997253 -179.791178 12.954282 -152.804946 -2.222029 -3.766191 -24.706349 5.116615 15.339054 46.464731 12.851648 -23.542205 15.471219 0.099200 -2.031000 -5.591200 8.824012 -9.324824 -40.333491 -17.228033 -20.000984 75.201522 6.098365 -16.616591 7.973030 -2.922100 10.567900 -30.836100 0.840444 -0.203015 -4.978119 1.516232 -0.122251 -10.170465 2.231562 5.077562 0.385538 -1.714400 2.153900 3.534600 -79.005744 -8.353717 37.252498 53.342826 -48.653650 -36.245693 -0.982410 -0.368372 0.831852 -7.125000 0.000000 0.000000 69.693079 -15.537791 17.704119 -34.869704 41.735902 -22.882401 3.192394 1.883955 -1.934286 7.125000 0.000000 0.000000 
-8.856640 16.593516 48.705781 -179.830726 12.235117 -152.511446 -2.093865 -4.355844 -23.570785 4.516520 14.810339 44.811481 12.915180 -22.674713 15.839370 0.094900 -1.986900 -5.469300 9.401980 -9.872638 -43.375734 -18.045949 -20.239445 77.940761 5.817839 -15.903645 6.870931 -2.727500 10.240300 -29.758500 0.948933 -0.761963 -4.982795 1.850449 -0.421071 -10.223464 2.262216 5.304649 0.306485 -1.719500 2.262600 3.451000 -78.761059 -9.649125 37.036098 57.280501 -49.753478 -40.114992 -0.987592 -0.433905 1.048405 -7.125000 0.000000 0.000000 68.534595 -16.472896 18.493742 -35.272662 42.085121 -23.367293 3.193783 1.863495 -1.868169 7.125000 0.000000 0.000000 
-8.844828 16.584291 48.399911 -179.862563 11.740704 -152.130167 -2.003271 -4.892752 -22.478994 3.871460 14.245436 43.074405 12.907730 -21.714322 16.429938 0.095500 -1.992800 -5.485900 9.959989 -10.244273 -46.473454 -18.696805 -20.423093 80.141076 5.598192 -15.344302 5.862762 -2.596700 10.011700 -29.014600 1.051832 -1.245513 -4.981523 2.135869 -0.679082 -10.240495 2.294990 5.601390 0.073333 -1.911000 2.410700 3.623400 -78.509782 -10.698526 36.596981 61.616817 -50.890032 -44.502141 -1.007835 -0.515818 1.171584 -7.125000 0.000000 0.000000 67.209811 -17.385305 19.657923 -35.920141 42.575886 -24.083692 3.151987 1.837416 -1.542328 7.125000 0.000000 0.000000 
-8.836841 16.581929 48.080203 -179.897120 11.527311 -151.679883 -1.973844 -5.356812 -21.433299 3.162185 13.631489 41.226620 12.797718 -20.624067 17.355468 0.104500 -2.085000 -5.740600 10.438007 -10.365671 -49.542468 -19.140328 -20.573322 81.666380 5.408547 -14.869675 5.083566 -2.541900 9.913800 -28.697900 1.138064 -1.636223 -4.968657 2.364908 -0.892691 -10.141088 2.244903 5.939767 -0.010053 -1.948600 2.568100 3.502900 -78.229145 -11.521805 35.892119 66.362632 -52.073817 -49.402399 -1.044664 -0.609380 1.155707 -7.125000 0.000000 0.000000 65.736510 -18.187072 21.133395 -36.749333 43.159784 -24.974482 3.085764 1.797996 -1.088532 7.125000 0.000000 0.000000 
-8.832341 16.586991 47.746547 -179.944928 11.616356 -151.202816 -2.023754 -5.749207 -20.423642 2.402782 12.979305 39.311869 12.565350 -19.411714 18.651970 0.124600 -2.275100 -6.266700 10.788276 -10.216746 -52.476083 -19.359290 -20.709694 82.502327 5.176028 -14.300778 4.506199 -2.526500 9.885900 -28.608100 1.205683 -1.929191 -4.937287 2.522076 -1.057406 -9.956401 2.154462 6.331820 -0.116483 -2.004500 2.749900 3.350200 -77.896194 -12.093881 34.872589 71.550391 -53.322956 -54.778614 -1.093222 -0.704260 0.989421 -7.125000 0.000000 0.000000 64.160170 -18.846588 22.841490 -37.734618 43.808667 -26.013901 3.008718 1.756432 -0.554325 7.125000 0.000000 0.000000 
-8.831216 16.600603 47.399278 -179.999730 12.022869 -150.718511 -2.163758 -6.054173 -19.472983 1.611797 12.302164 37.378877 12.206307 -18.112975 20.361567 0.156000 -2.544900 -7.014200 11.008655 -9.804982 -55.226609 -19.356964 -20.843038 82.644837 4.910224 -13.657891 4.167484 -2.570500 9.965100 -28.863600 1.251286 -2.113680 -4.886489 2.600002 -1.167019 -9.710763 2.025663 6.761042 -0.252861 -2.077800 2.948700 3.156400 -77.513061 -12.409586 33.521954 77.176808 -54.612904 -60.483189 -1.142388 -0.781389 0.716420 -7.125000 0.000000 0.000000 62.535530 -19.332659 24.687109 -38.836422 44.487876 -27.161310 2.933352 1.722163 0.007132 7.125000 0.000000 0.000000 
-8.833129 16.624677 47.039860 179.954476 12.752756 -150.264540 -2.387525 -6.250551 -18.588795 0.791788 11.608391 35.469040 11.771395 -16.911171 22.602723 0.190500 -2.810900 -7.752900 11.103780 -9.149221 -57.705648 -19.131947 -20.975731 82.115398 4.589902 -12.890361 4.029357 -2.665300 10.132500 -29.407000 1.270548 -2.182482 -4.813741 2.581738 -1.217417 -9.436265 1.864872 7.208687 -0.425340 -2.163400 3.156500 2.918100 -77.074938 -12.487168 31.888378 83.168533 -55.835342 -66.258153 -1.175337 -0.818685 0.419565 -7.125000 0.000000 0.000000 60.936012 -19.615500 26.586046 -40.025825 45.170617 -28.380703 2.869539 1.704093 0.527558 7.125000 0.000000 0.000000 
-8.836841 16.660112 46.669193 179.922975 13.763527 -149.872632 -2.669662 -6.352724 -17.777065 -0.059804 10.899081 33.607690 11.314560 -15.953908 25.521814 0.220500 -3.022700 -8.342000 11.102055 -8.323689 -59.833643 -18.685651 -21.099536 80.940831 4.195282 -11.958022 4.073179 -2.797700 10.360100 -30.150800 1.263091 -2.149566 -4.720981 2.466321 -1.213068 -9.174102 1.677989 7.652310 -0.630313 -2.257200 3.363300 2.643400 -76.606537 -12.333550 30.120231 89.350800 -56.806170 -71.798234 -1.177772 -0.805785 0.198095 -7.125000 0.000000 0.000000 59.433656 -19.676660 28.460951 -41.259188 45.826647 -29.620073 2.823682 1.706555 0.958312 7.125000 0.000000 0.000000 
-8.841453 16.707360 46.289076 179.924601 15.057100 -149.539172 -2.992730 -6.319163 -17.090100 -0.938907 10.172102 31.808898 10.860362 -15.290922 29.264797 0.228600 -3.077700 -8.495100 11.044892 -7.367213 -61.602369 -18.039433 -21.202198 79.211472 3.717241 -10.850220 4.287560 -2.968200 10.643400 -31.086500 1.228687 -2.017909 -4.611032 2.263697 -1.151560 -8.952142 1.471163 8.077583 -0.866456 -2.354700 3.563100 2.334300 -76.152060 -11.959330 28.386486 95.381232 -57.349726 -76.812832 -1.149587 -0.747686 0.152540 -7.125000 0.000000 0.000000 58.074663 -19.491785 30.264787 -42.487101 46.429462 -30.822623 2.795339 1.728378 1.278311 7.125000 0.000000 0.000000 
-8.845615 16.765969 45.900973 179.958656 16.573109 -149.272568 -3.317568 -6.152318 -16.554842 -1.818503 9.435260 30.085069 10.391415 -14.847902 33.930022 0.199300 -2.874500 -7.929500 10.981315 -6.364828 -62.991407 -17.220143 -21.266231 77.016450 3.180324 -9.633618 4.654356 -3.189800 10.996100 -32.266800 1.170657 -1.810940 -4.488113 1.990536 -1.041427 -8.788441 1.250178 8.467535 -1.125980 -2.453300 3.747400 2.008900 -75.752296 -11.412308 26.804704 100.786686 -57.429904 -81.058859 -1.108259 -0.666304 0.357811 -7.125000 0.000000 0.000000 56.892826 -19.049152 31.954303 -43.672959 46.962084 -31.945548 2.781765 1.768808 1.471276 7.125000 0.000000 0.000000 
